<?xml version="1.0" encoding="UTF-8" standalone="no"?>
<!-- Created with Inkscape (http://www.inkscape.org/) -->

<svg
   xmlns:dc="http://purl.org/dc/elements/1.1/"
   xmlns:cc="http://creativecommons.org/ns#"
   xmlns:rdf="http://www.w3.org/1999/02/22-rdf-syntax-ns#"
   xmlns:svg="http://www.w3.org/2000/svg"
   xmlns="http://www.w3.org/2000/svg"
   xmlns:sodipodi="http://sodipodi.sourceforge.net/DTD/sodipodi-0.dtd"
   xmlns:inkscape="http://www.inkscape.org/namespaces/inkscape"
   width="500"
   height="500"
   viewBox="0 0 132.29197 132.29167"
   version="1.1"
   id="svg1303"
   inkscape:version="0.92.4 (5da689c313, 2019-01-14)"
   sodipodi:docname="icon_thumb.svg">
  <defs
     id="defs1297" />
  <sodipodi:namedview
     id="base"
     pagecolor="#ffffff"
     bordercolor="#666666"
     borderopacity="1.0"
     inkscape:pageopacity="0.0"
     inkscape:pageshadow="2"
     inkscape:zoom="1.5046797"
     inkscape:cx="35.718548"
     inkscape:cy="203.39339"
     inkscape:document-units="mm"
     inkscape:current-layer="layer1"
     showgrid="false"
     units="px"
     inkscape:window-width="1920"
     inkscape:window-height="1009"
     inkscape:window-x="-8"
     inkscape:window-y="-8"
     inkscape:window-maximized="1"
     showguides="true"
     inkscape:guide-bbox="true">
    <sodipodi:guide
       position="80.99058,65.965029"
       orientation="0,1"
       id="guide816"
       inkscape:locked="false" />
    <sodipodi:guide
       position="65.965178,49.107299"
       orientation="1,0"
       id="guide818"
       inkscape:locked="false" />
  </sodipodi:namedview>
  <metadata
     id="metadata1300">
    <rdf:RDF>
      <cc:Work
         rdf:about="">
        <dc:format>image/svg+xml</dc:format>
        <dc:type
           rdf:resource="http://purl.org/dc/dcmitype/StillImage" />
        <dc:title />
      </cc:Work>
    </rdf:RDF>
  </metadata>
  <g
     inkscape:label="Ebene 1"
     inkscape:groupmode="layer"
     id="layer1"
     transform="translate(0,-164.70764)">
    <path
       style="opacity:1;fill:#000000;fill-opacity:1;stroke:none;stroke-width:0;stroke-linecap:round;stroke-linejoin:bevel;stroke-miterlimit:4;stroke-dasharray:none;stroke-dashoffset:0;stroke-opacity:1;paint-order:markers fill stroke"
       d="m 72.35681,178.12175 c -0.545876,-0.0192 -1.121779,0.0192 -1.729242,0.12259 -12.959134,2.14891 4.226681,21.04642 -10.867262,31.83193 -12.617074,10.52505 -17.206737,7.22264 -17.332488,10.67172 v 33.88171 c 1.891308,5.00813 14.483922,10.12847 27.868234,11.21944 13.384309,1.09096 32.098988,-1.73801 32.305468,-7.56421 0.10989,-5.27572 -2.896223,-5.39662 -2.896223,-5.39662 0,0 6.589043,-0.40752 6.808883,-6.12278 0.10966,-5.60545 -6.38265,-6.40691 -6.38265,-6.40691 0,0 8.31589,-0.23607 8.31589,-6.01832 0,-5.91485 -6.39662,-6.38072 -8.37539,-6.48104 1.22776,-0.0747 6.07353,-1.75141 6.04505,-7.59582 -0.0287,-6.03384 -9.280896,-5.53597 -25.919173,-6.63279 1.919791,-11.19377 3.258461,-35.14851 -7.841097,-35.50894 z m -45.69253,38.36631 c -1.562226,0 -2.819733,1.04793 -2.819733,2.34979 v 38.25943 c 0,1.30191 1.257507,2.34983 2.819733,2.34983 h 10.526021 c 1.562231,0 2.819739,-1.04792 2.819739,-2.34983 v -38.25943 c 0,-1.30186 -1.257508,-2.34979 -2.819739,-2.34979 z"
       id="rect1278"
       inkscape:connector-curvature="0" />
  </g>
</svg>
